<?xml version="1.0" encoding="utf-8"?>
<!-- Generator: Adobe Illustrator 27.0.0, SVG Export Plug-In . SVG Version: 6.00 Build 0)  -->
<svg version="1.1" id="Layer_1" xmlns="http://www.w3.org/2000/svg" xmlns:xlink="http://www.w3.org/1999/xlink" x="0px" y="0px"
	 viewBox="0 0 512 512" style="enable-background:new 0 0 512 512;" xml:space="preserve">
<style type="text/css">
	.st0{fill:none;}
	.st1{fill:#333333;}
</style>
<path class="st0" d="M412,30H100c-38.6,0-70,31.4-70,70v312c0,38.6,31.4,70,70,70h312c38.6,0,70-31.4,70-70V100
	C482,61.4,450.6,30,412,30z M425.6,270.8c-3.2,45.5-21.6,83.9-55,114.9c-17.1,15.9-36.9,27.6-59,35.2c-1.9,0.6-4,0.8-6,0.7
	c-4.2-0.3-7.1-3.7-7.1-8.3c0-6.6,0.1-13.1,0.1-19.7c0-8.9,0.1-17.8,0.1-26.6c0-8-1.1-15.7-4.8-22.9c-1.6-3.2-3.7-6.1-6.6-8.8
	c2.2-0.3,4.1-0.5,6-0.8c13.8-2,27.1-5.4,39.1-12.8c14.3-8.7,23.3-21.5,28-37.4c3.9-13.1,5.1-26.6,4-40.2
	c-1.2-14.1-6.6-26.4-15.9-37.1c-0.9-1-1-1.8-0.6-3.1c3.7-11.1,3.6-22.4,0.8-33.6c-0.7-2.8-1.8-5.6-2.6-8.4c-0.4-1.4-1.3-1.6-2.4-1.7
	c-3.9-0.3-7.7,0.3-11.5,1.3c-10.1,2.7-19.3,7.5-28.1,13c-0.5,0.3-1.1,0.6-1.5,1c-2.4,2.3-5,2.2-8.1,1.4c-16-4.1-32.2-5.4-48.7-4.3
	c-10.4,0.7-20.7,2.4-30.8,5c-0.6,0.2-1.6-0.1-2.2-0.4c-8.3-5.4-16.9-10.4-26.3-13.8c-5.4-1.9-10.9-3.4-16.7-3.2
	c-2.6,0.1-2.7,0.1-3.5,2.5c-4.6,12.8-6,25.9-2.1,39.2c0.9,2.9,0.5,4.6-1.4,6.9c-9.9,11.9-14.6,25.8-14.8,41.2
	c-0.2,12.7,1.1,25.2,5.2,37.2c7,20.5,21.1,34,41.3,41.3c9.4,3.4,19.1,5.3,29.1,6.5c0.4,0,0.9,0.1,1.6,0.3c-3,2.8-5.2,5.9-6.9,9.4
	c-1.9,3.9-3,8-3.7,12.3c-0.1,0.5-0.4,1.1-0.8,1.3c-9,3.9-18.3,5.6-28,2.9c-8.7-2.4-14.9-8-19.7-15.5c-3.7-5.8-7.9-11-13.7-14.9
	c-5.2-3.4-10.9-4.9-17.1-3.9c-1.6,0.3-3.5,0.4-4.1,2.3c-0.6,1.8,0.6,3.1,1.8,4.2c1.6,1.5,3.3,2.9,5.1,4c3.8,2.2,6.7,5.4,9.2,8.9
	c3.9,5.4,7.2,11.1,9.8,17.3c3.9,9.5,11.2,15.2,20.8,18.1c8,2.4,16.3,2.6,24.6,1.8c3.7-0.4,7.3-0.9,11.2-1.4c0,0.5,0,1,0,1.6
	c0.1,9.6,0,19.3,0.2,28.9c0.2,7.9-6.3,10.8-12.2,8.8c-28.6-9.6-52.9-25.8-72.9-48.3c-18.4-20.8-31-44.7-37.7-71.6
	c-2.7-10.7-4.3-21.5-4.8-32.6c0-0.6-0.2-1.3-0.2-1.9c0-4.2,0-8.5,0-12.8c0.2-2.1,0.3-4.2,0.5-6.3c3.5-43.3,20.9-80.1,52.1-110.3
	c21.8-21,47.6-35,77-42.3c18.1-4.5,36.5-5.8,55.1-4.2c68.9,5.9,127.6,53.3,147.7,119.2C424.5,229.9,427.1,250.1,425.6,270.8z"/>
<path class="st1" d="M270.7,90.8c-18.6-1.6-37-0.2-55.1,4.2c-29.4,7.2-55.2,21.2-77,42.3c-31.2,30.1-48.6,67-52.1,110.3
	c-0.2,2.1-0.3,4.2-0.5,6.3c0,4.2,0,8.5,0,12.8c0.1,0.6,0.2,1.3,0.2,1.9c0.5,11,2.1,21.9,4.8,32.6c6.7,27,19.3,50.9,37.7,71.6
	c20,22.5,44.3,38.7,72.9,48.3c6,2,12.4-0.9,12.2-8.8c-0.2-9.6-0.1-19.3-0.2-28.9c0-0.5,0-1.1,0-1.6c-3.9,0.5-7.5,1-11.2,1.4
	c-8.3,0.8-16.5,0.6-24.6-1.8c-9.7-2.9-16.9-8.6-20.8-18.1c-2.5-6.2-5.8-12-9.8-17.3c-2.6-3.5-5.4-6.6-9.2-8.9
	c-1.9-1.1-3.5-2.5-5.1-4c-1.2-1.1-2.4-2.4-1.8-4.2c0.6-1.8,2.5-2,4.1-2.3c6.2-1,11.9,0.5,17.1,3.9c5.8,3.8,10,9.1,13.7,14.9
	c4.7,7.4,11,13,19.7,15.5c9.7,2.7,19,1,28-2.9c0.4-0.2,0.7-0.8,0.8-1.3c0.8-4.2,1.9-8.4,3.7-12.3c1.7-3.5,3.9-6.6,6.9-9.4
	c-0.7-0.1-1.1-0.2-1.6-0.3c-9.9-1.2-19.6-3.1-29.1-6.5c-20.2-7.3-34.3-20.8-41.3-41.3c-4.1-12.1-5.4-24.6-5.2-37.2
	c0.2-15.4,4.9-29.3,14.8-41.2c1.9-2.3,2.2-4.1,1.4-6.9c-3.9-13.2-2.6-26.3,2.1-39.1c0.9-2.4,0.9-2.4,3.5-2.5
	c5.8-0.1,11.3,1.3,16.7,3.2c9.4,3.4,17.9,8.3,26.3,13.8c0.6,0.4,1.5,0.6,2.2,0.4c10.1-2.7,20.4-4.4,30.8-5
	c16.5-1.1,32.7,0.2,48.7,4.3c3.1,0.8,5.7,0.9,8.1-1.4c0.4-0.4,1-0.7,1.5-1c8.8-5.5,18-10.4,28.1-13c3.8-1,7.6-1.5,11.5-1.3
	c1.1,0.1,2,0.3,2.4,1.7c0.8,2.8,1.9,5.5,2.6,8.4c2.8,11.3,2.9,22.5-0.8,33.6c-0.4,1.3-0.4,2.1,0.6,3.1c9.3,10.6,14.7,23,15.9,37.1
	c1.1,13.6-0.1,27.1-4,40.2c-4.7,15.9-13.7,28.7-28,37.4c-12,7.4-25.3,10.8-39.1,12.8c-1.9,0.3-3.8,0.5-6,0.8c2.9,2.7,5,5.6,6.6,8.8
	c3.6,7.2,4.7,15,4.8,22.9c0,8.9-0.1,17.8-0.1,26.6c0,6.6-0.1,13.1-0.1,19.7c0,4.5,2.9,8,7.1,8.3c2,0.1,4.1,0,6-0.7
	c22.1-7.6,41.9-19.3,59-35.2c33.4-31,51.8-69.4,55-114.9c1.5-20.7-1.1-41-7.2-60.8C398.2,144.2,339.5,96.8,270.7,90.8z"/>
</svg>
