<?xml version="1.0" encoding="utf-8"?>
<!-- Generator: Adobe Illustrator 25.4.0, SVG Export Plug-In . SVG Version: 6.00 Build 0)  -->
<svg version="1.1" id="Layer_1" xmlns="http://www.w3.org/2000/svg" xmlns:xlink="http://www.w3.org/1999/xlink" x="0px" y="0px"
	 viewBox="0 0 512 512" enable-background="new 0 0 512 512" xml:space="preserve">
<g>
	<path fill="none" d="M412,30H100c-38.6,0-70,31.4-70,70v312c0,38.6,31.4,70,70,70h312c38.6,0,70-31.4,70-70V100
		C482,61.4,450.6,30,412,30z M425.59,270.82c-3.22,45.5-21.63,83.85-55.03,114.91c-17.13,15.92-36.9,27.57-59.01,35.18
		c-1.86,0.64-3.99,0.8-5.97,0.68c-4.19-0.27-7.06-3.74-7.06-8.28c0-6.56,0.07-13.13,0.11-19.69c0.05-8.88,0.12-17.75,0.11-26.63
		c-0.01-7.96-1.13-15.71-4.75-22.93c-1.62-3.23-3.72-6.11-6.63-8.8c2.18-0.3,4.09-0.55,6-0.83c13.77-2.01,27.1-5.43,39.12-12.77
		c14.3-8.74,23.29-21.51,27.99-37.41c3.88-13.13,5.11-26.6,3.95-40.21c-1.19-14.05-6.58-26.45-15.88-37.08
		c-0.91-1.04-0.98-1.83-0.56-3.11c3.69-11.11,3.61-22.36,0.81-33.63c-0.7-2.83-1.81-5.56-2.58-8.37c-0.37-1.35-1.26-1.59-2.4-1.66
		c-3.9-0.26-7.72,0.27-11.49,1.26c-10.15,2.66-19.29,7.53-28.13,13.03c-0.52,0.32-1.1,0.59-1.54,1c-2.41,2.27-4.97,2.23-8.11,1.41
		c-15.98-4.15-32.25-5.37-48.72-4.32c-10.44,0.66-20.7,2.35-30.81,5.04c-0.65,0.17-1.59-0.05-2.18-0.43
		c-8.32-5.42-16.89-10.36-26.26-13.76c-5.39-1.95-10.9-3.39-16.7-3.25c-2.63,0.06-2.66,0.07-3.53,2.47
		c-4.65,12.84-5.99,25.91-2.08,39.15c0.85,2.87,0.53,4.63-1.38,6.93c-9.88,11.92-14.6,25.82-14.83,41.24
		c-0.19,12.67,1.14,25.16,5.24,37.24c6.98,20.55,21.1,33.96,41.3,41.29c9.41,3.42,19.15,5.32,29.06,6.52
		c0.45,0.05,0.89,0.14,1.58,0.26c-2.99,2.81-5.19,5.9-6.86,9.37c-1.88,3.9-2.98,8.03-3.73,12.28c-0.08,0.47-0.42,1.1-0.81,1.27
		c-9.03,3.86-18.3,5.59-27.99,2.87c-8.67-2.44-14.95-8.04-19.67-15.48c-3.68-5.8-7.91-11.05-13.71-14.87
		c-5.21-3.43-10.87-4.94-17.09-3.94c-1.62,0.26-3.46,0.44-4.09,2.28c-0.61,1.78,0.63,3.1,1.8,4.17c1.59,1.45,3.26,2.91,5.12,3.98
		c3.83,2.21,6.68,5.37,9.22,8.86c3.94,5.39,7.23,11.13,9.76,17.34c3.88,9.49,11.16,15.2,20.82,18.09c8.04,2.4,16.27,2.6,24.55,1.82
		c3.66-0.35,7.29-0.9,11.17-1.38c0,0.51,0,1.05,0,1.59c0.05,9.63-0.04,19.27,0.2,28.9c0.2,7.92-6.26,10.82-12.25,8.79
		c-28.56-9.63-52.88-25.78-72.89-48.31c-18.45-20.77-31.02-44.68-37.74-71.65c-2.67-10.7-4.26-21.55-4.76-32.57
		c-0.03-0.65-0.17-1.29-0.25-1.94c0-4.25,0-8.5,0-12.75c0.17-2.11,0.34-4.21,0.51-6.32c3.5-43.31,20.87-80.15,52.09-110.31
		c21.77-21.03,47.58-35.02,77-42.26c18.12-4.46,36.51-5.83,55.09-4.23c68.85,5.93,127.55,53.32,147.73,119.17
		C424.5,229.86,427.06,250.14,425.59,270.82z"/>
	<path fill="#5886C7" d="M412,0H100C44.77,0,0,44.77,0,100v312c0,55.23,44.77,100,100,100h312c55.23,0,100-44.77,100-100V100
		C512,44.77,467.23,0,412,0z M482,412c0,38.6-31.4,70-70,70H100c-38.6,0-70-31.4-70-70V100c0-38.6,31.4-70,70-70h312
		c38.6,0,70,31.4,70,70V412z"/>
	<path fill="#5886C7" d="M270.69,90.85c-18.58-1.6-36.97-0.23-55.09,4.23c-29.42,7.23-55.23,21.22-77,42.26
		c-31.21,30.15-48.59,66.99-52.09,110.31c-0.17,2.11-0.34,4.21-0.51,6.32c0,4.25,0,8.5,0,12.75c0.09,0.65,0.23,1.29,0.25,1.94
		c0.5,11.02,2.09,21.87,4.76,32.57c6.72,26.97,19.29,50.88,37.74,71.65c20.01,22.53,44.33,38.68,72.89,48.31
		c6,2.02,12.45-0.88,12.25-8.79c-0.24-9.63-0.15-19.26-0.2-28.9c0-0.54,0-1.07,0-1.59c-3.87,0.49-7.51,1.03-11.17,1.38
		c-8.28,0.79-16.51,0.59-24.55-1.82c-9.66-2.89-16.95-8.6-20.82-18.09c-2.53-6.2-5.82-11.95-9.76-17.34
		c-2.55-3.48-5.39-6.65-9.22-8.86c-1.86-1.07-3.52-2.52-5.12-3.98c-1.17-1.07-2.41-2.39-1.8-4.17c0.63-1.84,2.48-2.02,4.09-2.28
		c6.22-1.01,11.88,0.5,17.09,3.94c5.8,3.82,10.03,9.07,13.71,14.87c4.72,7.44,11,13.05,19.67,15.48c9.69,2.72,18.97,0.99,27.99-2.87
		c0.39-0.17,0.73-0.8,0.81-1.27c0.75-4.25,1.85-8.38,3.73-12.28c1.67-3.47,3.87-6.56,6.86-9.37c-0.68-0.11-1.13-0.2-1.58-0.26
		c-9.9-1.2-19.65-3.1-29.06-6.52c-20.2-7.33-34.32-20.75-41.3-41.29c-4.1-12.08-5.43-24.56-5.24-37.24
		c0.23-15.42,4.95-29.32,14.83-41.24c1.91-2.3,2.22-4.06,1.38-6.93c-3.91-13.24-2.56-26.31,2.08-39.15c0.87-2.4,0.91-2.4,3.53-2.47
		c5.81-0.14,11.31,1.3,16.7,3.25c9.37,3.39,17.94,8.33,26.26,13.76c0.58,0.38,1.53,0.6,2.18,0.43c10.11-2.7,20.37-4.38,30.81-5.04
		c16.46-1.05,32.74,0.17,48.72,4.32c3.14,0.82,5.7,0.86,8.11-1.41c0.44-0.41,1.02-0.68,1.54-1c8.84-5.5,17.97-10.37,28.13-13.03
		c3.76-0.99,7.58-1.51,11.49-1.26c1.14,0.08,2.02,0.31,2.4,1.66c0.78,2.81,1.88,5.54,2.58,8.37c2.81,11.27,2.88,22.51-0.81,33.63
		c-0.43,1.28-0.35,2.08,0.56,3.11c9.31,10.63,14.69,23.03,15.88,37.08c1.15,13.61-0.07,27.07-3.95,40.21
		c-4.7,15.9-13.69,28.68-27.99,37.41c-12.02,7.35-25.34,10.77-39.12,12.77c-1.91,0.28-3.83,0.53-6,0.83
		c2.91,2.69,5.01,5.57,6.63,8.8c3.62,7.22,4.73,14.97,4.75,22.93c0.02,8.88-0.06,17.75-0.11,26.63c-0.03,6.56-0.11,13.13-0.11,19.69
		c0,4.54,2.87,8.02,7.06,8.28c1.98,0.12,4.11-0.04,5.97-0.68c22.11-7.62,41.89-19.26,59.01-35.18
		c33.4-31.05,51.81-69.4,55.03-114.91c1.46-20.68-1.1-40.97-7.17-60.81C398.24,144.17,339.54,96.78,270.69,90.85z"/>
</g>
</svg>
