<?xml version="1.0" encoding="utf-8"?>
<!-- Generator: Adobe Illustrator 25.4.0, SVG Export Plug-In . SVG Version: 6.00 Build 0)  -->
<svg version="1.1" id="Layer_1" xmlns="http://www.w3.org/2000/svg" xmlns:xlink="http://www.w3.org/1999/xlink" x="0px" y="0px"
	 viewBox="0 0 512 512" enable-background="new 0 0 512 512" xml:space="preserve">
<g>
	<path fill="none" d="M412,30H100c-38.6,0-70,31.4-70,70v312c0,38.6,31.4,70,70,70h312c38.6,0,70-31.4,70-70V100
		C482,61.4,450.6,30,412,30z M171.67,398.04h-48.99v-201.7h48.99V398.04z M146.45,167.87c-15.7,0-26.57-11.68-26.45-26.9
		c-0.11-15.59,11.17-27.01,27.08-27.01c16.28,0,26.94,11.32,27.07,27.01C174.25,156.19,163.44,167.87,146.45,167.87z M392.01,398.04
		h-48.99V280c0-26.31-8.72-47.65-34-47.65c-17.5,0-30.29,12.56-35.19,28.35c-1.49,4.26-2.31,10.55-2.31,16.83v120.5h-48.99V255.38
		c0-23.15-0.82-41.45-1.66-59.04h42.69l2.43,28.32h1.08c9.13-15.8,29.51-32.5,59.3-32.5c34.7,0,65.65,23.68,65.65,82.38V398.04z"/>
	<path fill="#333333" d="M412,0H100C44.77,0,0,44.77,0,100v312c0,55.23,44.77,100,100,100h312c55.23,0,100-44.77,100-100V100
		C512,44.77,467.23,0,412,0z M482,412c0,38.6-31.4,70-70,70H100c-38.6,0-70-31.4-70-70V100c0-38.6,31.4-70,70-70h312
		c38.6,0,70,31.4,70,70V412z"/>
	<path fill="#333333" d="M147.07,113.96c-15.91,0-27.19,11.42-27.08,27.01c-0.11,15.22,10.75,26.9,26.45,26.9
		c16.99,0,27.8-11.68,27.69-26.9C174.01,125.28,163.34,113.96,147.07,113.96z"/>
	<rect x="122.67" y="196.34" fill="#333333" width="48.99" height="201.7"/>
	<path fill="#333333" d="M326.36,192.16c-29.8,0-50.18,16.7-59.3,32.5h-1.08l-2.43-28.32h-42.69c0.84,17.59,1.66,35.89,1.66,59.04
		v142.66h48.99v-120.5c0-6.28,0.82-12.57,2.31-16.83c4.91-15.79,17.69-28.35,35.19-28.35c25.28,0,34,21.34,34,47.65v118.04h48.99
		v-123.5C392.01,215.84,361.07,192.16,326.36,192.16z"/>
</g>
</svg>
