<?xml version="1.0" encoding="utf-8"?>
<!-- Generator: Adobe Illustrator 27.0.0, SVG Export Plug-In . SVG Version: 6.00 Build 0)  -->
<svg version="1.1" id="Layer_1" xmlns="http://www.w3.org/2000/svg" xmlns:xlink="http://www.w3.org/1999/xlink" x="0px" y="0px"
	 viewBox="0 0 512 512" style="enable-background:new 0 0 512 512;" xml:space="preserve">
<style type="text/css">
	.st0{fill:none;}
	.st1{fill:#333333;}
</style>
<path class="st0" d="M412,30H100c-38.6,0-70,31.4-70,70v312c0,38.6,31.4,70,70,70h312c38.6,0,70-31.4,70-70V100
	C482,61.4,450.6,30,412,30z M171.7,398h-49V196.3h49V398z M146.4,167.9c-15.7,0-26.6-11.7-26.4-26.9c-0.1-15.6,11.2-27,27.1-27
	c16.3,0,26.9,11.3,27.1,27C174.2,156.2,163.4,167.9,146.4,167.9z M392,398h-49V280c0-26.3-8.7-47.6-34-47.6
	c-17.5,0-30.3,12.6-35.2,28.4c-1.5,4.3-2.3,10.5-2.3,16.8V398h-49V255.4c0-23.1-0.8-41.4-1.7-59h42.7l2.4,28.3h1.1
	c9.1-15.8,29.5-32.5,59.3-32.5c34.7,0,65.6,23.7,65.6,82.4L392,398L392,398z"/>
<path class="st1" d="M147.1,114c-15.9,0-27.2,11.4-27.1,27c-0.1,15.2,10.8,26.9,26.4,26.9c17,0,27.8-11.7,27.7-26.9
	C174,125.3,163.3,114,147.1,114z"/>
<rect x="122.7" y="196.3" class="st1" width="49" height="201.7"/>
<path class="st1" d="M326.4,192.2c-29.8,0-50.2,16.7-59.3,32.5H266l-2.4-28.3h-42.7c0.8,17.6,1.7,35.9,1.7,59V398h49V277.5
	c0-6.3,0.8-12.6,2.3-16.8c4.9-15.8,17.7-28.4,35.2-28.4c25.3,0,34,21.3,34,47.6v118h49V274.6C392,215.8,361.1,192.2,326.4,192.2z"/>
</svg>
