<?xml version="1.0" encoding="utf-8"?>
<!-- Generator: Adobe Illustrator 27.0.0, SVG Export Plug-In . SVG Version: 6.00 Build 0)  -->
<svg version="1.1" id="Layer_1" xmlns="http://www.w3.org/2000/svg" xmlns:xlink="http://www.w3.org/1999/xlink" x="0px" y="0px"
	 viewBox="0 0 512 512" style="enable-background:new 0 0 512 512;" xml:space="preserve">
<style type="text/css">
	.st0{fill:none;}
	.st1{fill:#333333;}
</style>
<path class="st0" d="M412,30H100c-38.6,0-70,31.4-70,70v312c0,38.6,31.4,70,70,70h312c38.6,0,70-31.4,70-70V100
	C482,61.4,450.6,30,412,30z M414.2,343.9c0,10.2-8.3,18.5-18.5,18.5H116.3c-10.2,0-18.5-8.3-18.5-18.5V181l154,90.2
	c1.3,0.8,2.7,1.1,4.1,1.1c1.4,0,2.8-0.4,4.1-1.1l154.1-89.1L414.2,343.9L414.2,343.9z M414.2,159.4c0,2.4-1.2,4.5-3.3,5.7
	l-151.5,87.6c-2,1.2-4.6,1.2-6.6,0l-151.6-88.8c-2-1.2-3.3-3.3-3.3-5.7v-1.9c0-3.6,2.9-6.6,6.6-6.6l303.2,1.2c3.6,0,6.6,3,6.6,6.6
	V159.4z"/>
<g>
	<path class="st1" d="M407.6,150.9l-303.2-1.2c-3.6,0-6.6,2.9-6.6,6.6v1.9c0,2.3,1.2,4.5,3.3,5.7l151.6,88.8c2,1.2,4.6,1.2,6.6,0
		l151.5-87.6c2-1.2,3.3-3.4,3.3-5.7v-2C414.2,153.8,411.2,150.9,407.6,150.9z"/>
</g>
<g>
	<path class="st1" d="M256,272.3c-1.4,0-2.9-0.4-4.1-1.1L97.8,181v162.9c0,10.2,8.3,18.5,18.5,18.5h279.4c10.2,0,18.5-8.3,18.5-18.5
		V182.2l-154.1,89.1C258.8,272,257.4,272.3,256,272.3z"/>
</g>
</svg>
