<?xml version="1.0" encoding="utf-8"?>
<!-- Generator: Adobe Illustrator 25.4.0, SVG Export Plug-In . SVG Version: 6.00 Build 0)  -->
<svg version="1.1" id="Layer_1" xmlns="http://www.w3.org/2000/svg" xmlns:xlink="http://www.w3.org/1999/xlink" x="0px" y="0px"
	 viewBox="0 0 512 512" enable-background="new 0 0 512 512" xml:space="preserve">
<g>
	<path fill="none" d="M412,30H100c-38.6,0-70,31.4-70,70v312c0,38.6,31.4,70,70,70h312c38.6,0,70-31.4,70-70V100
		C482,61.4,450.6,30,412,30z M414.16,343.87c0,10.19-8.26,18.46-18.46,18.46H116.3c-10.19,0-18.46-8.26-18.46-18.46v-162.9
		l154.02,90.24c1.28,0.75,2.71,1.12,4.14,1.12c1.42,0,2.83-0.37,4.1-1.1l154.06-89.07V343.87z M414.16,159.44
		c0,2.35-1.25,4.52-3.29,5.7l-151.52,87.6c-2.05,1.19-4.58,1.18-6.63-0.02L101.1,163.88c-2.02-1.18-3.26-3.34-3.26-5.68v-1.93
		c0-3.64,2.95-6.59,6.59-6.59l303.17,1.18c3.63,0.01,6.56,2.96,6.56,6.59V159.44z"/>
	<path fill="#333333" d="M412,0H100C44.77,0,0,44.77,0,100v312c0,55.23,44.77,100,100,100h312c55.23,0,100-44.77,100-100V100
		C512,44.77,467.23,0,412,0z M482,412c0,38.6-31.4,70-70,70H100c-38.6,0-70-31.4-70-70V100c0-38.6,31.4-70,70-70h312
		c38.6,0,70,31.4,70,70V412z"/>
	<g>
		<path fill="#333333" d="M407.6,150.86l-303.17-1.18c-3.64,0-6.59,2.95-6.59,6.59v1.93c0,2.34,1.24,4.5,3.26,5.68l151.62,88.84
			c2.04,1.2,4.57,1.21,6.63,0.02l151.52-87.6c2.04-1.18,3.29-3.35,3.29-5.7v-1.99C414.16,153.82,411.23,150.88,407.6,150.86z"/>
	</g>
	<g>
		<path fill="#333333" d="M256,272.33c-1.43,0-2.86-0.37-4.14-1.12L97.84,180.96v162.9c0,10.19,8.26,18.46,18.46,18.46H395.7
			c10.19,0,18.46-8.26,18.46-18.46v-161.7L260.1,271.23C258.83,271.96,257.42,272.33,256,272.33z"/>
	</g>
</g>
</svg>
